PathFileType	4	(x/y/z)	S05_PSF_T05
DataRate	CameraRate	NumFrames	NumMarkers	Units	OrigDataRate	OrigDataStartFrame	OrigNumFrames
240	240	11	50	mm	240	56	445
Frame#	Time	Sternum			R.Acromium			L.Acromium			Top.Head			R.ASIS			L.ASIS			R.PSIS			L.PSIS			R.Great.Tro			L.Great.Tro			R.Iliac.Crest			L.Iliac.Crest			V.Sacral			R.Thigh.Upper.Post			R.Thigh.Lower.Ant			R.Thigh.Lower.Post			R.Thigh.Upper.Ant			R.Knee.Lat			R.Knee.Med			R.Shank.Upper.Post			R.Shank.Lower.Ant			R.Shank.Lower.Post			R.Shank.Upper.Ant			R.Ankle.Lat			R.Ankle.Med			R.Heel.Upper			R.Heel.Med			R.Heel.Lat			R.Toe.Lat			R.Toe.Med			R.Toe.Tip			L.Thigh.Upper.Post			L.Thigh.Lower.Ant			L.Thigh.Lower.Post			L.Thigh.Upper.Ant			L.Knee.Lat			L.Shank.Upper.Post			L.Shank.Lower.Ant			L.Shank.Lower.Post			L.Shank.Upper.Ant			L.Ankle.Lat			L.Ankle.Med			L.Heel.Upper			L.Heel.Med			L.Heel.Lat			L.Toe.Lat			L.Toe.Med			L.Toe.Tip			Cervical.Spine			Back			
		X1	Y1	Z1	X2	Y2	Z2	X3	Y3	Z3	X4	Y4	Z4	X5	Y5	Z5	X6	Y6	Z6	X7	Y7	Z7	X8	Y8	Z8	X9	Y9	Z9	X10	Y10	Z10	X11	Y11	Z11	X12	Y12	Z12	X13	Y13	Z13	X14	Y14	Z14	X15	Y15	Z15	X16	Y16	Z16	X17	Y17	Z17	X18	Y18	Z18	X19	Y19	Z19	X20	Y20	Z20	X21	Y21	Z21	X22	Y22	Z22	X23	Y23	Z23	X24	Y24	Z24	X25	Y25	Z25	X26	Y26	Z26	X27	Y27	Z27	X28	Y28	Z28	X29	Y29	Z29	X30	Y30	Z30	X31	Y31	Z31	X32	Y32	Z32	X33	Y33	Z33	X34	Y34	Z34	X35	Y35	Z35	X36	Y36	Z36	X37	Y37	Z37	X38	Y38	Z38	X39	Y39	Z39	X40	Y40	Z40	X41	Y41	Z41	X42	Y42	Z42	X43	Y43	Z43	X44	Y44	Z44	X45	Y45	Z45	X46	Y46	Z46	X47	Y47	Z47	X48	Y48	Z48	X49	Y49	Z49	X50	Y50	Z50	

56	0.22917	-1235.7	1251.7	292.68	-1343.9	1509.7	441.51	-1357.4	1521	114.89	-1346	1820.1	256.55	NaN	NaN	NaN	NaN	NaN	NaN	NaN	NaN	NaN	NaN	NaN	NaN	-1405	909.65	480.03	-1345.5	925.61	93.518	-1404.1	1078	456.61	-1367.6	1078.9	120.93	-1505.8	975.42	281.74	-1346.9	693.79	495.8	NaN	NaN	NaN	-1345.2	601.62	481.88	NaN	NaN	NaN	-1359.5	507.29	472.91	-1331.7	480.15	341.41	-1579.4	413.17	442.49	-1595.8	324.93	441.61	-1638	368.32	420.99	-1533.5	368.84	461.2	-1693.3	279.87	417.96	-1648.7	276.47	336.42	-1752.5	305.88	343.31	-1766.9	280.27	313.64	-1779.5	287.95	376.89	-1721.4	140.61	448.95	-1673.6	107.8	340.46	NaN	NaN	NaN	-1286.7	693.29	103.4	-1191	641.73	131.26	-1255.8	604.49	121.62	-1215.2	727.97	113.63	-1218.5	521.04	130.1	-1262	315.2	130.04	-1188.3	264.47	139.19	-1257.6	243.5	149.11	-1197.2	333.81	125.26	-1218.2	109.49	163.6	-1185.1	130.13	248.5	NaN	NaN	NaN	-1259	41.631	252.78	-1272.1	38.355	193.45	-1093.3	39.664	127.97	-1063.6	54.886	244.76	-1003.7	66.765	185.73	-1397.2	1554.7	282.66	-1503.6	1278.2	289.07
57	0.23333	-1230.1	1252.1	292.25	-1338.3	1510.3	441.07	-1351.7	1521.7	114.44	-1340.3	1820.8	256.06	NaN	NaN	NaN	NaN	NaN	NaN	NaN	NaN	NaN	NaN	NaN	NaN	-1398.8	910.03	479.61	-1340.8	926.31	92.947	-1398.7	1078.4	456.16	-1362.6	1079.6	120.43	-1500.6	975.84	281.44	-1337.8	694.79	495.4	NaN	NaN	NaN	-1334.8	602.57	481.48	NaN	NaN	NaN	-1347.4	508.19	472.39	-1318.8	482.8	340.28	-1567.7	415.27	442.1	-1584.3	327.03	441.16	-1626.4	370.72	420.73	-1521.8	370.64	460.68	-1682.4	282.65	417.58	-1637.8	279.05	335.88	-1741.7	308.58	342.88	-1756.2	282.82	313.38	-1768.6	290.78	376.62	-1710.5	143.72	449	-1662.9	110.34	340.6	NaN	NaN	NaN	-1283	693.72	102.98	-1187.4	641.75	130.78	-1252.4	604.8	121.27	-1211.2	728.08	113.12	-1215.2	521.12	129.75	-1260.6	315.51	130.23	-1187.2	264.33	139.11	-1256.5	243.77	149.29	-1195.7	333.69	125.13	-1217.8	109.61	163.72	-1184.7	130.09	248.59	NaN	NaN	NaN	-1259	41.655	252.81	-1272	38.486	193.45	-1093.3	39.607	127.97	-1063.5	54.605	244.83	-1003.6	66.352	185.79	-1391.5	1555.4	282.21	-1498.2	1279	288.46
58	0.2375	-1224.5	1252.6	291.83	-1332.7	1510.8	440.64	-1346	1522.4	114.01	-1334.7	1821.6	255.59	NaN	NaN	NaN	NaN	NaN	NaN	NaN	NaN	NaN	NaN	NaN	NaN	-1392.6	910.47	479.21	-1336.1	927.01	92.405	-1393.4	1078.9	455.71	-1357.5	1080.3	119.94	-1495.5	976.31	281.17	-1328.6	695.89	494.97	NaN	NaN	NaN	-1324.4	603.64	481.04	NaN	NaN	NaN	-1335.4	509.22	471.82	-1305.8	485.42	339.13	-1555.9	417.25	441.66	-1572.7	329	440.7	-1614.8	372.91	420.43	-1509.9	372.37	460.13	-1671.3	285.14	417.2	-1626.8	281.43	335.32	-1730.8	310.89	342.49	-1745.3	284.96	313.16	-1757.5	293.17	376.39	-1699.1	146.49	449.03	-1651.7	112.67	340.68	NaN	NaN	NaN	-1279.2	694.15	102.6	-1184	641.75	130.33	-1249	605.1	120.93	-1207.4	728.18	112.65	-1212	521.18	129.42	-1259.2	315.82	130.47	-1186.2	264.19	139.03	-1255.5	244.04	149.5	-1194.2	333.59	125.02	-1217.6	109.73	163.85	-1184.4	130.06	248.67	NaN	NaN	NaN	-1258.9	41.681	252.84	-1272	38.619	193.45	-1093.2	39.561	127.97	-1063.4	54.356	244.9	-1003.4	65.979	185.83	-1385.9	1556.2	281.79	-1492.8	1279.8	287.84
59	0.24167	-1219	1253.1	291.44	-1327.1	1511.4	440.23	-1340.4	1523	113.6	-1329	1822.3	255.14	NaN	NaN	NaN	NaN	NaN	NaN	NaN	NaN	NaN	NaN	NaN	NaN	-1386.4	910.99	478.83	-1331.5	927.7	91.893	-1388.1	1079.5	455.27	-1352.5	1081	119.46	-1490.3	976.82	280.91	-1319.5	697.08	494.52	NaN	NaN	NaN	-1314	604.81	480.57	NaN	NaN	NaN	-1323.4	510.38	471.18	-1293	488	337.99	-1544.2	419.1	441.17	-1561	330.83	440.23	-1603.1	374.89	420.1	-1498	374.03	459.54	-1660	287.31	416.84	-1615.6	283.59	334.74	-1719.8	312.8	342.15	-1734.2	286.69	312.96	-1746.3	295.11	376.2	-1687.2	148.9	449.03	-1640.1	114.77	340.69	NaN	NaN	NaN	-1275.6	694.57	102.24	-1180.6	641.75	129.9	-1245.8	605.39	120.61	-1203.6	728.27	112.21	-1208.9	521.24	129.1	-1258	316.13	130.75	-1185.2	264.07	138.94	-1254.5	244.31	149.75	-1192.9	333.49	124.91	-1217.3	109.86	163.96	-1184	130.03	248.74	NaN	NaN	NaN	-1258.9	41.71	252.87	-1272	38.751	193.44	-1093.1	39.523	127.98	-1063.3	54.135	244.97	-1003.3	65.643	185.87	-1380.3	1556.9	281.38	-1487.4	1280.6	287.23
60	0.24583	-1213.5	1253.5	291.07	-1321.4	1512	439.83	-1334.8	1523.7	113.2	-1323.4	1823.1	254.72	NaN	NaN	NaN	NaN	NaN	NaN	NaN	NaN	NaN	NaN	NaN	NaN	-1380.3	911.58	478.47	-1326.9	928.38	91.41	-1382.8	1080.1	454.84	-1347.5	1081.7	119	-1485.2	977.37	280.68	-1310.4	698.35	494.04	NaN	NaN	NaN	-1303.6	606.08	480.07	NaN	NaN	NaN	-1311.5	511.65	470.49	-1280.3	490.51	336.87	-1532.4	420.8	440.63	-1549.2	332.51	439.76	-1591.4	376.64	419.75	-1486	375.6	458.92	-1648.4	289.16	416.48	-1604.3	285.5	334.15	-1708.7	314.32	341.84	-1723.1	288.01	312.79	-1735	296.6	376.04	-1675	150.94	449	-1628.1	116.63	340.63	NaN	NaN	NaN	-1272	694.99	101.9	-1177.3	641.73	129.49	-1242.6	605.69	120.31	-1199.9	728.36	111.78	-1205.8	521.28	128.79	-1256.8	316.44	131.05	-1184.3	263.95	138.84	-1253.6	244.59	150.01	-1191.7	333.41	124.81	-1217.1	109.99	164.08	-1183.7	130.02	248.8	NaN	NaN	NaN	-1258.8	41.743	252.9	-1271.9	38.881	193.44	-1093.1	39.488	127.98	-1063.3	53.943	245.03	-1003.2	65.339	185.91	-1374.8	1557.7	280.98	-1482.1	1281.5	286.61
61	0.25	-1208.1	1254.1	290.7	-1315.8	1512.6	439.44	-1329.2	1524.4	112.82	-1317.7	1823.9	254.32	NaN	NaN	NaN	NaN	NaN	NaN	NaN	NaN	NaN	NaN	NaN	NaN	-1374.3	912.24	478.13	-1322.4	929.07	90.956	-1377.5	1080.8	454.42	-1342.5	1082.4	118.56	-1480.2	977.98	280.48	-1301.2	699.7	493.54	-1226.6	627.01	456.15	-1293.3	607.45	479.53	NaN	NaN	NaN	-1299.7	513.05	469.75	-1267.9	492.94	335.76	-1520.7	422.36	440.06	-1537.3	334.04	439.3	-1579.7	378.16	419.38	-1473.9	377.08	458.28	-1636.6	290.67	416.15	-1592.9	287.17	333.54	-1697.4	315.43	341.58	-1711.7	288.91	312.65	-1723.5	297.64	375.9	-1662.3	152.59	448.94	-1615.7	118.24	340.5	NaN	NaN	NaN	-1268.6	695.41	101.59	-1174.1	641.7	129.1	-1239.5	605.99	120.02	-1196.2	728.44	111.36	-1202.9	521.33	128.49	-1255.7	316.76	131.36	-1183.5	263.85	138.73	-1252.8	244.87	150.27	-1190.5	333.33	124.7	-1216.9	110.13	164.18	-1183.4	130.01	248.86	NaN	NaN	NaN	-1258.8	41.783	252.94	-1271.9	39.011	193.44	-1093	39.455	127.98	-1063.2	53.776	245.08	-1003.1	65.063	185.93	-1369.2	1558.5	280.6	-1476.7	1282.4	286.01
62	0.25417	-1202.7	1254.6	290.35	-1310.2	1513.2	439.05	-1323.6	1525.1	112.44	-1312.1	1824.7	253.95	NaN	NaN	NaN	NaN	NaN	NaN	NaN	NaN	NaN	NaN	NaN	NaN	-1368.2	912.95	477.81	-1317.9	929.75	90.531	-1372.3	1081.5	454.01	-1337.6	1083.2	118.13	-1475.2	978.63	280.31	-1292.1	701.12	493.02	-1218.3	629.42	455.11	-1283	608.91	478.96	-1221.3	718.72	468.03	-1287.9	514.55	468.97	-1255.8	495.28	334.69	-1508.9	423.75	439.45	-1525.4	335.4	438.83	-1567.9	379.45	418.99	-1461.8	378.45	457.62	-1624.5	291.84	415.82	-1581.3	288.59	332.94	-1686	316.14	341.36	-1700.2	289.41	312.52	-1712	298.23	375.78	-1649.3	153.85	448.84	-1602.9	119.59	340.3	NaN	NaN	NaN	-1265.2	695.84	101.29	-1171	641.67	128.72	-1236.5	606.28	119.74	-1192.7	728.51	110.96	-1200	521.36	128.2	-1254.6	317.07	131.66	-1182.7	263.76	138.6	-1252	245.15	150.53	-1189.4	333.27	124.58	-1216.7	110.26	164.27	-1183.1	130.01	248.9	NaN	NaN	NaN	-1258.8	41.831	252.99	-1271.9	39.138	193.44	-1093	39.421	127.98	-1063.1	53.633	245.12	-1003	64.812	185.95	-1363.7	1559.3	280.23	-1471.4	1283.3	285.41
63	0.25833	-1197.4	1255.1	290.01	-1304.6	1513.9	438.67	-1318	1525.9	112.08	-1306.4	1825.5	253.6	NaN	NaN	NaN	NaN	NaN	NaN	NaN	NaN	NaN	NaN	NaN	NaN	-1362.3	913.72	477.51	-1313.5	930.43	90.133	-1367.1	1082.3	453.61	-1332.6	1083.9	117.73	-1470.2	979.33	280.16	-1283	702.61	492.48	-1209.7	631.95	454.03	-1272.7	610.47	478.36	-1214.1	721.08	467.06	-1276.3	516.15	468.14	-1244.1	497.54	333.64	-1497.1	424.98	438.81	-1513.4	336.59	438.37	-1556.1	380.51	418.59	-1449.6	379.72	456.94	-1612.3	292.67	415.51	-1569.6	289.74	332.32	-1674.5	316.45	341.17	-1688.5	289.49	312.4	-1700.2	298.38	375.68	-1635.9	154.72	448.7	-1589.8	120.67	340.03	NaN	NaN	NaN	-1261.8	696.26	101.01	-1168	641.62	128.34	-1233.6	606.58	119.47	-1189.2	728.58	110.56	-1197.4	521.39	127.92	-1253.6	317.38	131.94	-1182	263.68	138.46	-1251.2	245.43	150.77	-1188.3	333.21	124.46	-1216.5	110.4	164.35	-1182.8	130.03	248.92	NaN	NaN	NaN	-1258.7	41.887	253.03	-1271.8	39.262	193.43	-1092.9	39.384	127.97	-1063.1	53.512	245.15	-1002.9	64.583	185.96	-1358.1	1560.1	279.86	-1466.1	1284.2	284.82
64	0.2625	-1192.1	1255.7	289.67	-1299	1514.5	438.3	-1312.5	1526.6	111.74	-1300.8	1826.3	253.28	NaN	NaN	NaN	NaN	NaN	NaN	NaN	NaN	NaN	NaN	NaN	NaN	-1356.3	914.54	477.23	-1309.1	931.12	89.764	-1361.8	1083.1	453.22	-1327.8	1084.7	117.34	-1465.2	980.06	280.05	-1274	704.15	491.92	-1200.9	634.58	452.93	-1262.5	612.12	477.73	-1206.7	723.55	466.06	-1264.8	517.84	467.28	-1232.8	499.73	332.64	-1485.4	426.03	438.14	-1501.4	337.6	437.92	-1544.3	381.34	418.17	-1437.4	380.88	456.26	-1599.9	293.15	415.2	-1557.8	290.62	331.71	-1662.8	316.36	341.01	-1676.7	289.18	312.3	-1688.4	298.08	375.58	-1622.2	155.2	448.52	-1576.3	121.48	339.7	NaN	NaN	NaN	-1258.6	696.68	100.74	-1165	641.56	127.96	-1230.8	606.88	119.21	-1185.8	728.63	110.15	-1194.9	521.4	127.64	-1252.6	317.68	132.19	-1181.3	263.61	138.31	-1250.5	245.71	150.99	-1187.3	333.17	124.33	-1216.3	110.53	164.42	-1182.5	130.05	248.93	NaN	NaN	NaN	-1258.7	41.954	253.08	-1271.8	39.384	193.43	-1092.9	39.344	127.97	-1063	53.412	245.18	-1002.8	64.374	185.96	-1352.6	1560.9	279.5	-1460.8	1285.1	284.24
65	0.26667	-1186.8	1256.3	289.33	-1293.4	1515.2	437.93	-1306.9	1527.4	111.4	-1295.2	1827.2	252.98	NaN	NaN	NaN	NaN	NaN	NaN	NaN	NaN	NaN	NaN	NaN	NaN	-1350.4	915.41	476.97	-1304.7	931.8	89.421	-1356.6	1084	452.84	-1322.9	1085.5	116.96	-1460.3	980.84	279.97	-1264.9	705.75	491.34	-1191.8	637.31	451.81	-1252.4	613.85	477.08	-1199.1	726.1	465.04	-1253.4	519.62	466.4	-1221.7	501.86	331.67	-1473.7	426.9	437.45	-1489.4	338.43	437.46	-1532.5	381.92	417.74	-1425.2	381.93	455.57	-1587.4	293.3	414.9	-1545.8	291.23	331.1	-1651	315.87	340.88	-1664.8	288.46	312.19	-1676.4	297.35	375.49	-1608.1	155.3	448.29	-1562.4	122.03	339.3	NaN	NaN	NaN	-1255.4	697.11	100.48	-1162.2	641.48	127.58	-1228	607.18	118.95	-1182.4	728.68	109.74	-1192.6	521.41	127.39	-1251.7	317.99	132.4	-1180.7	263.55	138.15	-1249.8	245.99	151.17	-1186.3	333.13	124.19	-1216.1	110.66	164.46	-1182.2	130.08	248.93	NaN	NaN	NaN	-1258.6	42.033	253.12	-1271.8	39.502	193.43	-1092.8	39.299	127.96	-1063	53.329	245.2	-1002.8	64.181	185.96	-1347.1	1561.8	279.15	-1455.6	1286	283.68
66	0.27083	-1181.6	1257	288.99	-1287.8	1515.9	437.56	-1301.4	1528.1	111.07	-1289.6	1828	252.71	NaN	NaN	NaN	NaN	NaN	NaN	NaN	NaN	NaN	NaN	NaN	NaN	-1344.6	916.32	476.72	-1300.4	932.48	89.104	-1351.4	1084.9	452.48	-1318.1	1086.3	116.61	-1455.4	981.63	279.93	-1255.9	707.41	490.74	-1182.7	640.13	450.68	-1242.4	615.67	476.4	-1191.3	728.74	464.02	-1242.1	521.48	465.49	-1211	503.96	330.73	-1462	427.58	436.73	-1477.3	339.06	437.01	-1520.7	382.25	417.3	-1413	382.86	454.87	-1574.6	293.12	414.59	-1533.7	291.57	330.49	-1639.1	315	340.77	-1652.7	287.34	312.09	-1664.3	296.19	375.4	-1593.8	155.03	448.03	-1548.2	122.32	338.84	NaN	NaN	NaN	-1252.3	697.54	100.24	-1159.4	641.39	127.19	-1225.4	607.48	118.7	-1179.1	728.72	109.33	-1190.5	521.4	127.14	-1250.8	318.28	132.57	-1180	263.5	137.97	-1249.1	246.26	151.31	-1185.4	333.09	124.03	-1215.9	110.79	164.5	-1182	130.13	248.91	-1272	65.645	220.45	-1258.6	42.125	253.18	-1271.7	39.617	193.42	-1092.8	39.251	127.94	-1062.9	53.262	245.21	-1002.7	64.004	185.95	-1341.6	1562.6	278.8	-1450.3	1286.9	283.14
